<svg xmlns="http://www.w3.org/2000/svg" viewBox="0 0 512 512">
  <defs>
    <linearGradient id="fbBg" x1="0%" y1="0%" x2="100%" y2="100%">
      <stop offset="0%" stop-color="#18ACFE"/>
      <stop offset="100%" stop-color="#0165E1"/>
    </linearGradient>
    <filter id="fbShadow" x="-20%" y="-20%" width="140%" height="140%">
      <feDropShadow dx="0" dy="12" stdDeviation="16" flood-color="#0165E1" flood-opacity="0.35"/>
    </filter>
    <linearGradient id="fbBevel" x1="0%" y1="0%" x2="0%" y2="100%">
      <stop offset="0%" stop-color="#FFFFFF" stop-opacity="0.3"/>
      <stop offset="100%" stop-color="#FFFFFF" stop-opacity="0"/>
    </linearGradient>
  </defs>
  <rect x="32" y="32" width="448" height="448" rx="112" fill="url(#fbBg)" filter="url(#fbShadow)"/>
  <rect x="32" y="32" width="448" height="448" rx="112" fill="url(#fbBevel)"/>
  <!-- Facebook Official F Path -->
  <path d="M344 268l14-92h-88v-60c0-25 12-50 52-50h40V-10s-36-6-71-6c-73 0-121 44-121 125v67h-81v92h81v222c16 3 33 4 50 4s34-1 50-4V268h65z" transform="translate(0, 40)" fill="#FFFFFF"/>
</svg>
